<svg enable-background="new 0 0 1600 1200" fill="none" height="1200" viewBox="0 0 1600 1200" width="1600" xmlns="http://www.w3.org/2000/svg"><path d="m1280.27 1011.66h-991.71l-104.92-401.59c-3.03-11.59-2.52-23.82 1.47-35.12l110-311.89c7.95-22.55 28.54-38.23 52.4-39.9l795.81-55.63c25.59-1.79 49.49 12.89 59.46 36.53l160.21 379.69c4.82 11.43 5.98 24.08 3.32 36.2z" fill="#f3f3f3"/><path d="m731.52 552.71h-381.16c-6.1 0-11.05-4.95-11.05-11.05v-256.96c0-6.1 4.95-11.05 11.05-11.05h381.16c6.1 0 11.05 4.95 11.05 11.05v256.97c0 6.1-4.94 11.04-11.05 11.04z" fill="#fff"/><path d="m726.09 290.119h-370.3v246.25h370.3z" fill="#ececec"/><path d="m457.31 338.051h-76.55v90.71h76.55z" fill="#fff"/><path d="m421.79 344.221c0 1.52-1.23 2.75-2.75 2.75s-2.75-1.23-2.75-2.75 1.23-2.75 2.75-2.75 2.75 1.23 2.75 2.75z" fill="#000" opacity=".15"/><path d="m605.94 384.02h-90.58v107.33h90.58z" fill="#fff"/><path d="m563.4 398.5c0 1.52-1.23 2.75-2.75 2.75s-2.75-1.23-2.75-2.75 1.23-2.75 2.75-2.75 2.75 1.23 2.75 2.75z" fill="#000" opacity=".15"/><path d="m496.33 313.119h-46.06v46.06h46.06z" fill="#d9dcde"/><path d="m476.05 317.789c0 1.52-1.23 2.75-2.75 2.75s-2.75-1.23-2.75-2.75 1.23-2.75 2.75-2.75 2.75 1.23 2.75 2.75z" fill="#b1b5ba"/><path d="m421.79 344.221c0 1.52-1.23 2.75-2.75 2.75s-2.75-1.23-2.75-2.75 1.23-2.75 2.75-2.75 2.75 1.23 2.75 2.75z" fill="#000" opacity=".15"/><path d="m563.4 398.5c0 1.52-1.23 2.75-2.75 2.75s-2.75-1.23-2.75-2.75 1.23-2.75 2.75-2.75 2.75 1.23 2.75 2.75z" fill="#000" opacity=".15"/><path d="m476.05 317.789c0 1.52-1.23 2.75-2.75 2.75s-2.75-1.23-2.75-2.75 1.23-2.75 2.75-2.75 2.75 1.23 2.75 2.75z" fill="#000" opacity=".15"/><path d="m782.62 693.33h-497.31v263.66h497.31z" fill="#d9dcde"/><path d="m770.56 944.931v-239.54h-473.19v239.54z" fill="#f3f3f3"/><path d="m769.88 944.931v-239.54h-472.51v239.54z" fill="#f3f3f3"/><path d="m812.62 956.99v-263.66h-30.01v263.66z" fill="#b1b5ba"/><path d="m770.56 831.591v-12.861h-473.19v12.861z" fill="#d9dcde"/><path d="m365.35 714.15h-25.19v104.58h25.19z" fill="#b1b5ba"/><path d="m365.35 818.73h67.33v-104.58h-67.33z" fill="#d9dcde"/><path d="m387.71 726.119h-14.19v92.61h14.19z" fill="#b1b5ba"/><path d="m387.71 818.719h37.93v-92.61h-37.93z" fill="#d9dcde"/><path d="m430.88 818.729h-21.02l-12.11-87.28h21.02z" fill="#b1b5ba"/><path d="m430.88 818.729h56.19l-12.11-87.28h-56.19z" fill="#d9dcde"/><path d="m346.39 944.93h-21.02l-12.11-87.27h21.02z" fill="#b1b5ba"/><path d="m346.39 944.93h56.19l-12.11-87.27h-56.19z" fill="#d9dcde"/><path d="m648.27 944.931v-27.13h-129.12v27.13z" fill="#d9dcde"/><path d="m610.22 896.651v-21.93h-91.07v21.93z" fill="#d9dcde"/><path d="m631.78 917.81v-21.15h-112.63v21.15z" fill="#d9dcde"/><path d="m625.64 734h-20.41v84.73h20.41z" fill="#b1b5ba"/><path d="m625.63 818.73h54.55v-84.73h-54.55z" fill="#d9dcde"/><path d="m670.75 743.689h-19.59v75.04h19.59z" fill="#b1b5ba"/><path d="m670.75 818.729h33.5v-75.04h-33.5z" fill="#d9dcde"/><path d="m610.22 893h-91.07v3.66h91.07z" fill="#b1b5ba"/><path d="m631.78 914.15h-112.63v3.66h112.63z" fill="#b1b5ba"/><path d="m648.27 941.279h-129.12v3.66h129.12z" fill="#b1b5ba"/><path d="m1280.26 339.9h-340.22v9.74h340.22z" fill="#fff"/><path d="m805.45 956.99 4.63 51.39c.36 1.87-1.07 3.65-2.94 3.65-1.25 0-2.4-.8-2.85-2.05l-13.45-52.99z" fill="#d9dcde"/><path d="m803.76 986.92-5.61-1.34-7.21-28.5h14.61l4.63 51.39c.27 1.42-.53 2.85-1.78 3.38z" fill="#b1b5ba"/><path d="m752.99 956.99 4.63 51.39c.36 1.87-1.07 3.65-2.94 3.65-1.25 0-2.4-.8-2.85-2.05l-13.45-52.99z" fill="#d9dcde"/><path d="m748.1 962.69-8.37-1.6-1.43-4.1h14.61l4.63 51.39c.27 1.42-.53 2.85-1.78 3.38z" fill="#b1b5ba"/><path d="m363.96 956.99-4.63 51.39c-.36 1.87 1.07 3.65 2.94 3.65 1.25 0 2.4-.8 2.85-2.05l13.45-52.99z" fill="#d9dcde"/><path d="m366.54 984.331-4.99-1.25 2.4-26.101h14.61l-13.45 52.99c-.45 1.25-1.6 2.05-2.85 2.05-.09 0-.09 0-.18 0z" fill="#b1b5ba"/><path d="m310.08 956.99-4.63 51.39c-.36 1.87 1.07 3.65 2.94 3.65 1.25 0 2.4-.8 2.85-2.05l13.45-52.99z" fill="#d9dcde"/><path d="m315.78 961.44-6.41-1.159.71-3.301h14.61l-13.45 52.99c-.45 1.25-1.6 2.05-2.85 2.05-.09 0-.09 0-.18 0z" fill="#b1b5ba"/><path d="m704.25 741.051h-53.09v2.65h53.09z" fill="#b1b5ba"/><path d="m704.25 741.051h-53.09v2.65h53.09z" fill="#000" opacity=".15"/><path d="m432.68 724.109h-59.16v2.01h59.16z" fill="#000" opacity=".15"/><path d="m418.77 731.45h13.91v-1.94h-35.22l.29 1.94z" fill="#b1b5ba"/><path d="m432.68 724.109h-59.16v2.01h59.16z" fill="#000" opacity=".15"/><path d="m418.77 731.45h13.91v-1.94h-35.22l.29 1.94z" fill="#000" opacity=".15"/><path d="m946.85 401.401-102.32 109.66c-7.61 8.16-21.21 4.27-23.46-6.63l-11.18-56.1 29.9-68.95 11.36 72.03 72.29-60.9z" fill="#fb9c9c"/><path d="m1210.06 1012.86h-320.18c-7.94 0-14.27-6.43-14.27-14.271v-585.7c0-7.94 6.43-14.27 14.27-14.27h320.18c7.94 0 14.27 6.43 14.27 14.27v585.7c0 7.941-6.33 14.271-14.27 14.271z" fill="#4d61fc"/><path d="m1210.06 1012.86h-320.18c-7.94 0-14.27-6.43-14.27-14.271v-585.7c0-7.94 6.43-14.27 14.27-14.27h320.18c7.94 0 14.27 6.43 14.27 14.27v585.7c0 7.941-6.33 14.271-14.27 14.271z" fill="#fff" opacity=".5"/><path d="m1200.21 1012.86h-320.17c-7.94 0-14.27-6.43-14.27-14.271v-585.7c0-7.94 6.43-14.27 14.27-14.27h320.18c7.94 0 14.27 6.43 14.27 14.27v585.7c-.01 7.941-6.34 14.271-14.28 14.271z" fill="#4d61fc"/><path d="m1200.21 1012.86h-320.17c-7.94 0-14.27-6.43-14.27-14.271v-585.7c0-7.94 6.43-14.27 14.27-14.27h320.18c7.94 0 14.27 6.43 14.27 14.27v585.7c-.01 7.941-6.34 14.271-14.28 14.271z" fill="#fff" opacity=".7"/><path d="m1154.94 600.511h-213.45c-2.36 0-4.21-1.91-4.21-4.21v-66.38c0-2.36 1.91-4.21 4.21-4.21h213.46c2.36 0 4.21 1.91 4.21 4.21v66.38c-.01 2.36-1.86 4.21-4.22 4.21z" fill="#4d61fc"/><path d="m1154.94 600.511h-213.45c-2.36 0-4.21-1.91-4.21-4.21v-66.38c0-2.36 1.91-4.21 4.21-4.21h213.46c2.36 0 4.21 1.91 4.21 4.21v66.38c-.01 2.36-1.86 4.21-4.22 4.21z" fill="#fff" opacity=".5"/><path d="m1149.44 600.511h-213.46c-2.36 0-4.21-1.91-4.21-4.21v-66.38c0-2.36 1.91-4.21 4.21-4.21h213.46c2.36 0 4.21 1.91 4.21 4.21v66.38c.06 2.36-1.85 4.21-4.21 4.21z" fill="#fff"/><path d="m1096.37 553.809h-62.76c-2.24 0-4-1.52-4-3.31 0-1.85 1.83-3.31 4-3.31h62.76c2.24 0 4 1.52 4 3.31 0 1.85-1.76 3.31-4 3.31z" fill="#61656d"/><path d="m1127.14 566.781h-95.43c-1.15 0-2.1-.79-2.1-1.74s.95-1.74 2.1-1.74h95.43c1.15 0 2.1.79 2.1 1.74.07.96-.95 1.74-2.1 1.74z" fill="#b0b4b9"/><path d="m1088.58 577.57h-56.86c-1.15 0-2.1-.79-2.1-1.74s.95-1.74 2.1-1.74h56.86c1.15 0 2.1.79 2.1 1.74s-.95 1.74-2.1 1.74z" fill="#b0b4b9"/><path d="m985.17 539.52h-4.49v.449c-10.45 2.08-18.36 11.341-18.36 22.411 0 11.06 7.86 20.329 18.36 22.409v.451h4.49c12.64 0 22.86-10.22 22.86-22.86-.01-12.64-10.23-22.86-22.86-22.86z" fill="#4d61fc"/><path d="m980.67 585.181c12.62 0 22.86-10.24 22.86-22.86s-10.24-22.86-22.86-22.86-22.86 10.23-22.86 22.86 10.23 22.86 22.86 22.86z" fill="#4d61fc"/><path d="m980.67 585.181c12.62 0 22.86-10.24 22.86-22.86s-10.24-22.86-22.86-22.86-22.86 10.23-22.86 22.86 10.23 22.86 22.86 22.86z" fill="#fff" opacity=".4"/><path d="m976.41 571.871-7.69-7.69c-.39-.39-.39-1.07 0-1.52l2.02-2.02c.39-.39 1.07-.39 1.52 0l4.94 4.94 11.91-11.96c.39-.39 1.07-.39 1.52 0l2.02 2.02c.39.39.39 1.07 0 1.52l-14.71 14.71c-.41.44-1.08.44-1.53 0z" fill="#fff"/><path d="m1154.94 718.3h-213.45c-2.36 0-4.21-1.91-4.21-4.21v-66.38c0-2.36 1.91-4.21 4.21-4.21h213.46c2.36 0 4.21 1.91 4.21 4.21v66.38c-.01 2.36-1.86 4.21-4.22 4.21z" fill="#4d61fc"/><path d="m1154.94 718.3h-213.45c-2.36 0-4.21-1.91-4.21-4.21v-66.38c0-2.36 1.91-4.21 4.21-4.21h213.46c2.36 0 4.21 1.91 4.21 4.21v66.38c-.01 2.36-1.86 4.21-4.22 4.21z" fill="#fff" opacity=".5"/><path d="m1149.44 718.3h-213.46c-2.36 0-4.21-1.91-4.21-4.21v-66.38c0-2.36 1.91-4.21 4.21-4.21h213.46c2.36 0 4.21 1.91 4.21 4.21v66.38c.06 2.36-1.85 4.21-4.21 4.21z" fill="#fff"/><path d="m1096.37 671.6h-62.76c-2.24 0-4-1.52-4-3.31 0-1.85 1.83-3.31 4-3.31h62.76c2.24 0 4 1.52 4 3.31 0 1.85-1.76 3.31-4 3.31z" fill="#61656d"/><path d="m1127.14 684.57h-95.43c-1.15 0-2.1-.79-2.1-1.74s.95-1.74 2.1-1.74h95.43c1.15 0 2.1.79 2.1 1.74.07.96-.95 1.74-2.1 1.74z" fill="#b0b4b9"/><path d="m1088.58 695.349h-56.86c-1.15 0-2.1-.79-2.1-1.74s.95-1.74 2.1-1.74h56.86c1.15 0 2.1.79 2.1 1.74 0 .96-.95 1.74-2.1 1.74z" fill="#b0b4b9"/><path d="m985.17 657.311h-4.49v.45c-10.45 2.08-18.36 11.34-18.36 22.41s7.86 20.33 18.36 22.41v.45h4.49c12.64 0 22.86-10.22 22.86-22.86-.01-12.64-10.23-22.86-22.86-22.86z" fill="#4d61fc"/><path d="m980.67 702.97c12.62 0 22.86-10.23 22.86-22.86s-10.24-22.86-22.86-22.86-22.86 10.23-22.86 22.86 10.23 22.86 22.86 22.86z" fill="#4d61fc"/><path d="m980.67 702.97c12.62 0 22.86-10.23 22.86-22.86s-10.24-22.86-22.86-22.86-22.86 10.23-22.86 22.86 10.23 22.86 22.86 22.86z" fill="#fff" opacity=".4"/><path d="m976.41 689.65-7.69-7.69c-.39-.39-.39-1.07 0-1.52l2.02-2.02c.39-.39 1.07-.39 1.52 0l4.94 4.94 11.91-11.96c.39-.39 1.07-.39 1.52 0l2.02 2.02c.39.39.39 1.07 0 1.52l-14.71 14.71c-.41.45-1.08.45-1.53 0z" fill="#fff"/><path d="m1154.94 836.089h-213.45c-2.36 0-4.21-1.91-4.21-4.21v-66.38c0-2.36 1.91-4.21 4.21-4.21h213.46c2.36 0 4.21 1.91 4.21 4.21v66.38c-.01 2.35-1.86 4.21-4.22 4.21z" fill="#4d61fc"/><path d="m1154.94 836.089h-213.45c-2.36 0-4.21-1.91-4.21-4.21v-66.38c0-2.36 1.91-4.21 4.21-4.21h213.46c2.36 0 4.21 1.91 4.21 4.21v66.38c-.01 2.35-1.86 4.21-4.22 4.21z" fill="#fff" opacity=".5"/><path d="m1149.44 836.089h-213.46c-2.36 0-4.21-1.91-4.21-4.21v-66.38c0-2.36 1.91-4.21 4.21-4.21h213.46c2.36 0 4.21 1.91 4.21 4.21v66.38c.06 2.35-1.85 4.21-4.21 4.21z" fill="#fff"/><path d="m1096.37 789.39h-62.76c-2.24 0-4-1.52-4-3.31 0-1.85 1.83-3.31 4-3.31h62.76c2.24 0 4 1.52 4 3.31 0 1.85-1.76 3.31-4 3.31z" fill="#61656d"/><path d="m1127.14 802.361h-95.43c-1.15 0-2.1-.79-2.1-1.74s.95-1.74 2.1-1.74h95.43c1.15 0 2.1.79 2.1 1.74.07.96-.95 1.74-2.1 1.74z" fill="#b0b4b9"/><path d="m1088.58 813.14h-56.86c-1.15 0-2.1-.79-2.1-1.74s.95-1.74 2.1-1.74h56.86c1.15 0 2.1.79 2.1 1.74 0 .96-.95 1.74-2.1 1.74z" fill="#b0b4b9"/><path d="m985.17 775.1h-4.49v.45c-10.45 2.08-18.36 11.34-18.36 22.41 0 11.06 7.86 20.33 18.36 22.41v.45h4.49c12.64 0 22.86-10.22 22.86-22.86-.01-12.64-10.23-22.86-22.86-22.86z" fill="#4d61fc"/><path d="m980.67 820.759c12.62 0 22.86-10.23 22.86-22.86s-10.24-22.86-22.86-22.86-22.86 10.23-22.86 22.86 10.23 22.86 22.86 22.86z" fill="#4d61fc"/><path d="m980.67 820.759c12.62 0 22.86-10.23 22.86-22.86s-10.24-22.86-22.86-22.86-22.86 10.23-22.86 22.86 10.23 22.86 22.86 22.86z" fill="#fff" opacity=".4"/><path d="m976.41 807.441-7.69-7.69c-.39-.39-.39-1.07 0-1.52l2.02-2.02c.39-.39 1.07-.39 1.52 0l4.94 4.94 11.91-11.96c.39-.39 1.07-.39 1.52 0l2.02 2.02c.39.39.39 1.07 0 1.52l-14.71 14.71c-.41.45-1.08.45-1.53 0z" fill="#fff"/><path d="m1154.94 956.39h-213.45c-2.36 0-4.21-1.91-4.21-4.21v-66.38c0-2.36 1.91-4.21 4.21-4.21h213.46c2.36 0 4.21 1.91 4.21 4.21v66.38c-.01 2.36-1.86 4.21-4.22 4.21z" fill="#4d61fc"/><path d="m1154.94 956.39h-213.45c-2.36 0-4.21-1.91-4.21-4.21v-66.38c0-2.36 1.91-4.21 4.21-4.21h213.46c2.36 0 4.21 1.91 4.21 4.21v66.38c-.01 2.36-1.86 4.21-4.22 4.21z" fill="#fff" opacity=".5"/><path d="m1149.44 956.39h-213.46c-2.36 0-4.21-1.91-4.21-4.21v-66.38c0-2.36 1.91-4.21 4.21-4.21h213.46c2.36 0 4.21 1.91 4.21 4.21v66.38c.06 2.36-1.85 4.21-4.21 4.21z" fill="#fff"/><path d="m1096.37 909.69h-62.76c-2.24 0-4-1.52-4-3.31 0-1.85 1.83-3.31 4-3.31h62.76c2.24 0 4 1.52 4 3.31 0 1.85-1.76 3.31-4 3.31z" fill="#61656d"/><path d="m1127.14 922.66h-95.43c-1.15 0-2.1-.79-2.1-1.74s.95-1.74 2.1-1.74h95.43c1.15 0 2.1.79 2.1 1.74.07.96-.95 1.74-2.1 1.74z" fill="#b0b4b9"/><path d="m1088.58 933.451h-56.86c-1.15 0-2.1-.79-2.1-1.74s.95-1.74 2.1-1.74h56.86c1.15 0 2.1.79 2.1 1.74s-.95 1.74-2.1 1.74z" fill="#b0b4b9"/><path d="m985.17 895.4h-4.49v.45c-10.45 2.08-18.36 11.34-18.36 22.41s7.86 20.33 18.36 22.41v.45h4.49c12.64 0 22.86-10.22 22.86-22.86-.01-12.64-10.23-22.86-22.86-22.86z" fill="#4d61fc"/><path d="m980.67 941.06c12.62 0 22.86-10.23 22.86-22.86s-10.24-22.86-22.86-22.86-22.86 10.24-22.86 22.86 10.23 22.86 22.86 22.86z" fill="#4d61fc"/><path d="m980.67 941.06c12.62 0 22.86-10.23 22.86-22.86s-10.24-22.86-22.86-22.86-22.86 10.24-22.86 22.86 10.23 22.86 22.86 22.86z" fill="#fff" opacity=".4"/><path d="m976.41 927.75-7.69-7.69c-.39-.39-.39-1.07 0-1.52l2.02-2.02c.39-.39 1.07-.39 1.52 0l4.94 4.94 11.91-11.96c.39-.39 1.07-.39 1.52 0l2.02 2.02c.39.39.39 1.07 0 1.52l-14.71 14.71c-.41.44-1.08.44-1.53 0z" fill="#fff"/><path d="m953.76 482.77c-.44 0-.83-.15-1.19-.46-.31-.35-.46-.75-.46-1.19v-34.12h-11.72c-.44 0-.83-.15-1.19-.46-.31-.35-.46-.75-.46-1.18v-7.05c0-.48.15-.88.46-1.19.35-.31.75-.46 1.19-.46h35.44c.48 0 .88.15 1.19.46s.46.7.46 1.19v7.05c0 .48-.15.88-.46 1.18-.31.31-.7.46-1.19.46h-11.73v34.12c0 .44-.15.83-.46 1.19-.31.31-.7.46-1.19.46zm22.36 0c-.35 0-.68-.13-.99-.4-.26-.31-.39-.64-.39-.99 0-.26.02-.46.07-.59l15.48-42.29c.13-.53.42-.97.86-1.32s1.01-.53 1.71-.53h9.74c.71 0 1.28.17 1.72.53.44.35.72.79.85 1.32l15.42 42.29.13.59c0 .35-.16.68-.46.99-.27.26-.6.4-.99.4h-8.1c-1.06 0-1.76-.46-2.11-1.38l-2.57-6.72h-17.59l-2.5 6.72c-.35.92-1.08 1.38-2.17 1.38zm27.74-17.59-6.13-17.39-6.13 17.39zm38.53 18.24c-4.17 0-7.75-.61-10.73-1.84-2.99-1.23-5.25-2.83-6.79-4.81-1.49-2.02-2.28-4.21-2.37-6.59 0-.35.13-.66.4-.92.3-.31.66-.46 1.05-.46h8.3c.53 0 .94.11 1.25.33.35.17.7.46 1.06.86.57 1.14 1.49 2.09 2.76 2.83 1.28.75 2.97 1.12 5.07 1.12 2.51 0 4.42-.39 5.73-1.19 1.32-.79 1.98-1.87 1.98-3.23 0-.97-.35-1.76-1.05-2.37-.66-.61-1.72-1.16-3.16-1.65-1.45-.48-3.61-1.03-6.46-1.65-5.27-1.1-9.22-2.7-11.86-4.81-2.59-2.15-3.88-5.2-3.88-9.15 0-2.68.74-5.07 2.24-7.18 1.49-2.11 3.62-3.76 6.39-4.94 2.76-1.19 5.99-1.78 9.68-1.78 3.82 0 7.13.66 9.95 1.98 2.81 1.32 4.94 2.99 6.38 5.01 1.5 1.98 2.29 3.93 2.38 5.86 0 .4-.14.72-.4.99-.26.26-.59.4-.99.4h-8.69c-.53 0-.97-.09-1.32-.26-.31-.18-.59-.46-.86-.86-.26-1.01-.98-1.87-2.17-2.57-1.14-.7-2.57-1.05-4.28-1.05-1.98 0-3.49.35-4.55 1.05-1.05.7-1.58 1.74-1.58 3.1 0 .92.29 1.69.86 2.31.61.61 1.58 1.18 2.9 1.71 1.36.48 3.29.99 5.79 1.51 4.09.75 7.34 1.69 9.75 2.83 2.46 1.1 4.26 2.55 5.4 4.35 1.15 1.76 1.72 3.97 1.72 6.65 0 2.94-.86 5.51-2.57 7.71-1.67 2.15-4.02 3.82-7.05 5.01-2.99 1.13-6.41 1.7-10.28 1.7zm28.14-.65c-.44 0-.84-.15-1.19-.46-.31-.35-.46-.75-.46-1.19v-42.82c0-.48.15-.88.46-1.19.35-.31.75-.46 1.19-.46h8.3c.48 0 .87.15 1.18.46s.46.7.46 1.19v14.62l12.19-15.02c.53-.83 1.38-1.25 2.57-1.25h9.48c.4 0 .73.15.99.46.26.26.4.57.4.92 0 .31-.07.57-.2.79l-15.81 19.89 16.99 21.87c.18.18.27.44.27.79s-.13.68-.4.99c-.26.26-.59.4-.99.4h-9.81c-1.05 0-1.93-.44-2.64-1.32l-13.04-16.27v15.94c0 .48-.15.88-.46 1.19s-.7.46-1.18.46h-8.3zm57.93.65c-4.17 0-7.75-.61-10.73-1.84-2.99-1.23-5.25-2.83-6.79-4.81-1.49-2.02-2.28-4.21-2.37-6.59 0-.35.13-.66.39-.92.31-.31.66-.46 1.06-.46h8.3c.53 0 .94.11 1.25.33.35.17.7.46 1.05.86.57 1.14 1.5 2.09 2.77 2.83 1.27.75 2.96 1.12 5.07 1.12 2.51 0 4.42-.39 5.73-1.19 1.32-.79 1.98-1.87 1.98-3.23 0-.97-.35-1.76-1.05-2.37-.66-.61-1.72-1.16-3.17-1.65-1.45-.48-3.6-1.03-6.45-1.65-5.27-1.1-9.22-2.7-11.86-4.81-2.59-2.15-3.88-5.2-3.88-9.15 0-2.68.74-5.07 2.23-7.18 1.5-2.11 3.63-3.76 6.39-4.94 2.77-1.19 6-1.78 9.69-1.78 3.82 0 7.13.66 9.94 1.98s4.94 2.99 6.39 5.01c1.5 1.98 2.29 3.93 2.37 5.86 0 .4-.13.72-.39.99-.26.26-.59.4-.99.4h-8.69c-.53 0-.97-.09-1.32-.26-.31-.18-.59-.46-.86-.86-.26-1.01-.99-1.87-2.17-2.57-1.14-.7-2.57-1.05-4.28-1.05-1.98 0-3.49.35-4.55 1.05-1.05.7-1.58 1.74-1.58 3.1 0 .92.29 1.69.86 2.31.61.61 1.58 1.18 2.9 1.71 1.36.48 3.29.99 5.79 1.51 4.09.75 7.34 1.69 9.75 2.83 2.46 1.1 4.26 2.55 5.4 4.35 1.14 1.76 1.72 3.97 1.72 6.65 0 2.94-.86 5.51-2.57 7.71-1.67 2.15-4.02 3.82-7.05 5.01-2.99 1.13-6.41 1.7-10.28 1.7z" fill="#fff"/><path d="m756.03 259.34c-12.2-2.36-18.94 10.52-22.14 27.03s-1.42 26.89 10.78 29.25 23.96-5.39 27.16-21.9-3.6-32.01-15.8-34.38z" fill="#3f4249"/><path d="m783.49 990.7 68.94 1.54-25.27-18.79c-2.43-1.75-4.1-4.19-5.12-6.94-1.12-2.99.05-5.09.36-6.75.84-4.48 3.13-19.02 3.13-19.02l-38.59.1z" fill="#f79898"/><path d="m796.17 965.539v-.4c-.2-2.27 1.38-4.25 3.56-4.55l22.67-.83.84-4.48h-37.3l-.01.13-1.67 24.08 33.73 6.75-9.2-3.66c-6.42-2.56-12.02-10.21-12.62-17.04z" fill="#000" opacity=".15"/><path d="m710.55 986.55 31.54-4.16 1.86-27.1.68-14.78-37.16.25.48 14.53z" fill="#f79898"/><path d="m716.52 981.311.69-15.03c.1-1.98 1.58-3.56 3.56-3.86l22.89-3.01.28-4.11h-36l2.82 33.67z" fill="#000" opacity=".15"/><path d="m688.62 555.79 19.32 399.5h36l14.8-325.71c.2-2.18 1.98-3.76 4.15-3.76 2.08 0 3.86 1.58 4.06 3.76l32.91 144.98-13.93 180.73h37.3l27.08-172.14c.87-5.55 1.05-11.18.51-16.77l-21.35-224.79z" fill="#4d61fc"/><path d="m688.52 564.861 19.42 390.44h36l14.8-325.71c.2-2.18 1.98-3.76 4.15-3.76 2.08 0 3.86 1.58 4.06 3.76l32.91 144.98-13.93 180.73h37.3l27.37-173.99c.68-4.32.81-8.71.4-13.06l-19.15-201.62-143.24-10.82z" fill="#fff" opacity=".2"/><path d="m713.3 972.311.89-.89c6.73-6.73 18.3-6.63 24.83.3l.49.59c1.68 1.78 2.57 4.06 2.57 6.33v3.76c0 2.18.3 4.35.99 6.43l3.07 10.19c.79 2.469 1.19 5.039 1.19 7.619v1.29c0 1.98-1.78 3.56-3.86 3.56h-35.51c-2.18 0-3.86-1.58-3.86-3.56v-.49c0-2.97.49-5.93 1.48-8.799l3.56-9.99c.79-2.27 1.29-4.65 1.29-7.12l.1-2.87c.1-2.3 1.09-4.57 2.77-6.35z" fill="#3f4249"/><path d="m704.1 1007.42v.49c0 1.98 1.78 3.56 3.86 3.56h35.51c2.18 0 3.86-1.58 3.86-3.56v-1.29c0-.49 0-.99-.1-1.48h-43.13z" fill="#000" opacity=".5"/><path d="m781.89 979.33v25.02c0 4.06 3.26 7.32 7.32 7.32h85.06c1.68 0 3.07-1.38 3.07-3.07 0-5.93-3.86-11.28-9.5-13.16l-19.19-6.33-24.33-18.891c-2.47-1.98-6.03-1.879-8.51.201l-10.78 9.2c-1.58 1.38-3.76 1.78-5.74 1.19l-13.65-4.25c-1.97-.5-3.75.89-3.75 2.77z" fill="#3f4249"/><path d="m789.21 1011.67h85.06c1.68 0 3.07-1.38 3.07-3.07 0-1.09-.1-2.08-.4-3.07h-94.95c.59 3.47 3.56 6.14 7.22 6.14z" fill="#000"/><g fill="#fff"><path d="m823.83 980.219c-.2 0-.4-.1-.49-.2-.3-.3-.3-.79 0-1.09l5.14-5.54c.3-.3.79-.3 1.09 0s.3.79 0 1.09l-5.14 5.54c-.2.1-.4.2-.6.2z"/><path d="m827.89 983.379c-.2 0-.4-.1-.49-.2-.3-.3-.3-.79 0-1.09l5.14-5.54c.3-.3.79-.3 1.09 0s.3.79 0 1.09l-5.14 5.54c-.21.1-.41.2-.6.2z"/><path d="m831.94 986.549c-.2 0-.4-.1-.49-.2-.3-.3-.3-.79 0-1.09l5.14-5.54c.3-.3.79-.3 1.09 0s.3.79 0 1.09l-5.14 5.54c-.1.1-.3.2-.6.2z"/><path d="m733.09 980.709c-.1 0-.3 0-.4-.1-6.73-3.36-13.06 0-13.06 0-.4.2-.99.1-1.19-.4-.2-.4-.1-.99.4-1.19.3-.2 7.12-3.76 14.74 0 .4.2.59.79.4 1.19-.2.31-.5.5-.89.5z"/><path d="m733.09 985.26c-.1 0-.3 0-.4-.1-6.82-3.36-13.06 0-13.06 0-.4.2-.99.1-1.19-.4-.2-.4-.1-.99.4-1.19.3-.2 7.12-3.76 14.74 0 .4.2.59.79.4 1.19-.2.31-.5.5-.89.5z"/><path d="m733.09 989.709c-.1 0-.3 0-.4-.1-6.73-3.36-13.06 0-13.06 0-.4.2-.99.1-1.19-.4-.2-.4-.1-.99.4-1.19.3-.2 7.12-3.76 14.74 0 .4.2.59.79.4 1.19-.2.31-.5.5-.89.5z"/></g><path d="m789.36 303.92s-34.8-32.54-42.24-2.44l-2.11 7.75-11.6 45.34c-.23 1.17 45.04 12.31 45.13 10.82l.78-8.1 2.05-24.09c.88-1.95 1.62-4.22 2.13-6.84 2.7-11.87 5.86-22.44 5.86-22.44z" fill="#f79898"/><path d="m795.09 306.691c7.54 0 13.65-6.11 13.65-13.65s-6.11-13.65-13.65-13.65-13.65 6.11-13.65 13.65 6.11 13.65 13.65 13.65z" fill="#3f4249"/><path d="m797.98 283.33s2.64 61.77-28.43 59.88c-26.9-1.59-21.89-43.03-21.89-43.03l6.4-26.26z" fill="#f79898"/><path d="m753.59 294.069c-3.07 14.21.99 23.41.99 23.41 33.31 1.9 37.19 8.84 37.19 8.84s-5.11 15.81-19.17 16.72-32.66-11.27-29.04-29.56c.89-4.52 13.04-27.53 13.04-27.53z" fill="#3f4249"/><path d="m772.48 328.15c-7.26-.38-9.16-7.95-8.69-8.17.46-.12 13.41 5.63 13.53 6.08.02.43-2.8 2.35-4.84 2.09z" fill="#fff"/><path d="m806.1 275.671c1.83-9.42-6.32-18.92-18.19-21.22s-22.98 3.47-24.81 12.88c-1.82 9.42 6.32 18.92 18.19 21.22 11.88 2.31 22.98-3.46 24.81-12.88z" fill="#3f4249"/><path d="m757.86 259.99c-7.44-1.44-14.94 5-16.76 14.38s2.34 20.19 9.78 21.63 15.33-7.03 17.15-16.41c1.83-9.38-2.73-18.16-10.17-19.6z" fill="#3f4249"/><path d="m744.63 311.171s2.49.68 4.05-.12l-5.55 5.77z" fill="#000" opacity=".15"/><path d="m751.43 296.019s-3.16-6.21-9.48-4.81c-7.17 1.63-8.71 16.85 2.29 19.89 5.73 1.61 5.23-2.01 5.14-6.76.95-5.48 2.05-8.32 2.05-8.32z" fill="#f79898"/><path d="m740.91 295.03c1.32-.55 2.44-.64 3.37-.25.93.38 1.68 1.23 2.13 2.53s.58 2.73.28 4.29l-.15 1.28c-.08.39-.42.62-.81.55-.39-.08-.62-.42-.55-.81l.15-1.28c.08-.39.26-2.37-.22-3.57-.33-.87-.82-1.47-1.37-1.78-.56-.21-1.38-.17-2.25.17-.33.14-.8-.05-.93-.38-.17-.14 0-.51.35-.75z" fill="#000" opacity=".3"/><path d="m797.26 288.12c-1.34.65-4.13 1.331-4.13 1.331-.29.05-.72-.08-.78-.47-.07-.39.08-.72.47-.78 0 0 3.93-1.411 4.31-1.571.73-.42 1.88-.96 3.22-2 .26-.24.67-.21.91.05s.21.67-.05.91c-1.3 1.22-3.49 2.31-3.95 2.53z" fill="#f79898"/><path d="m779.87 349.659.9-9.22c-3.85 2.48-9.67 3.86-17.85 1.37 0 0-5.58-1.51-10.99-5.94-.38-.36-.64-.44-.96-.27-.26.24-.22.53-.02.79.99 1.24 5.07 4.37 11.96 6.77 8.65 8.26 16.96 6.5 16.96 6.5z" fill="#000" opacity=".15"/><path d="m798.21 305.529-10.58-2.05-1.46-.28-9.22-1.79-.1-.02-11.94-2.31c-1.94-.38-3.8.88-4.17 2.82l-.53 2.72c-1.02 5.24 2.43 10.34 7.67 11.36s10.34-2.43 11.36-7.67l.53-2.72c.15-.78.01-1.61-.36-2.29l3.69.72c-.6.49-.94 1.23-1.09 2l-.53 2.72c-1.02 5.24 2.43 10.34 7.67 11.36s10.34-2.43 11.36-7.67l.53-2.72c.37-1.94-.89-3.8-2.83-4.18zm-19.8-.21-.53 2.72c-.87 4.47-5.17 7.46-9.64 6.59s-7.46-5.17-6.59-9.64l.53-2.72c.23-1.17 1.39-1.95 2.55-1.72l11.94 2.31.1.02c1.06.22 1.86 1.28 1.64 2.44zm20.73 6.84c-.87 4.47-5.17 7.46-9.64 6.59s-7.46-5.17-6.59-9.64l.53-2.72c.23-1.17 1.39-1.95 2.55-1.72l1.46.28 10.58 2.05c1.17.23 1.95 1.39 1.72 2.55z" fill="#21252b"/><path d="m814.74 565.689h-83.97c-.49 0-.79-.4-.79-.79s.4-.79.79-.79h83.97c.49 0 .79.4.79.79s-.3.79-.79.79z" fill="#000" opacity=".0225"/><path d="m909.82 393.11c-.08 2.99 2.3 5.38 5.18 5.46l7.31.19 1.32 17.77c.08 1.33 1.27 2.47 2.6 2.51 1.44.04 2.58-1.04 2.72-2.48l1.54-16.92c.01-.22.23-.44.57-.43.22.01.44.23.54.46l.68 16.76c.07 1.55 1.26 2.8 2.81 2.84s2.91-1.14 2.95-2.81l.99-16.94-.98 16.5c-.16 1.77 1.36 3.36 3.13 3.41 1.66.04 3.02-1.14 3.29-2.8l1.98-16.8-1.43 12.49c-.15 1.55 1.03 3.02 2.58 3.06 1.33.03 2.46-.82 2.72-2.15l2.38-10.58c.63-2.76-.3-5.66-2.36-7.49-8.34-7.64-20.49-9.4-30.6-4.22l-9.47 1.64c-.21-.13-.44.2-.45.53z" fill="#fb9c9c"/><path d="m938.4 399.5-.92 15.6 1.55.09.92-15.6z" fill="#000" opacity=".0225"/><path d="m945.53 400.68-1.37 12.57 1.54.17 1.37-12.57z" fill="#000" opacity=".0225"/><path d="m922.31 398.859-7.31-.19 4.54-4.1c.91-.86 2.45-.27 2.52 1.06z" fill="#000" opacity=".2"/><path d="m832.33 574.649h-142.4l-16.62-116.06 27.58-68.94 19.32-34.2 12.83.58s-1.83 13.52 24.73 17.18c22.63 3.13 21.55-15.93 21.55-15.93l40.52 2.69z" fill="#21252b"/><path d="m778.78 364.58c1.37-7.05-7.75-14.74-20.36-17.19s-23.94 1.29-25.31 8.33c-1.37 7.05 7.75 14.74 20.36 17.19s23.94-1.29 25.31-8.33z" fill="#f79898"/><path d="m667.2 373.5-18.51 101.84c-1.05 5.78-.09 11.74 2.71 16.89l51.1 93.89s-4.59 13.38 6.25 24.13c0 0 13.46-12.3 19.29-24.77l-39.41-100.62 12.87-44.06z" fill="#f79898"/><path d="m808.43 436.959 40.13-1.93-8.66-55.38c-1.72-11.03-10.9-19.37-22.04-20.04l-38.73-2.33z" fill="#21252b"/><path d="m716.78 389.93-16.41 54.63h-46.5l13.32-71.05c2.18-11.64 12.6-19.89 24.42-19.35l41.42 1.88z" fill="#21252b"/><path d="m815.09 408.5c5.22 10.26 8.28 21.48 8.99 32.97l7.77 125.14 19.01 200.2c.5 5.3.34 10.65-.49 15.91l-27.15 172.58h-19.09l29.33-180.44-21.33-200.21-4.35-180.48z" fill="#000" opacity=".15"/><path d="m715.21 395.17-26.59 89.7 31.49 80.37h14.13l-25.42-85.04z" fill="#000" opacity=".15"/><path d="m756.18 628.01-.03.02c-8.47 4.72-13.91 13.47-14.4 23.15l-15.38 304.11h17.57l14.92-325.37c.08-1.84 1.3-3.43 3.05-3.99-2 .39-3.94 1.09-5.73 2.08z" fill="#000" opacity=".15"/><path d="m734.24 565.24 5.13 15.81s-15.36 20.29-30.61 29.2c0 0 13.83-12.75 19.29-24.77l-7.93-20.24z" fill="#000" opacity=".15"/><path d="m406.28 641.479 14.52-71.61-.44-.08-14.52 71.6z" fill="#3f4249"/><path d="m402.24 545.76-.45.01 1.91 93.05.45-.01z" fill="#3f4249"/><path d="m380.95 562.859-.35.28 22.19 27.88.35-.28z" fill="#3f4249"/><path d="m394.97 659.29 2.23-3.3c2.23-3.3 3.38-7.21 3.38-11.22v-7.93h8.55v7.93c0 4.01 1.16 7.93 3.38 11.22l2.23 3.3c4.63 6.95 6.06 15.59 4.01 23.69l-2.49 9.8h-22.8l-2.49-9.8c-2.05-8.1-.54-16.74 4-23.69z" fill="#858990"/><path d="m394.97 659.29 2.23-3.3c2.23-3.3 3.38-7.21 3.38-11.22v-7.93h2.49v7.21c0 4.45-1.34 8.82-3.74 12.56-3.74 6.86-3.74 14.7-2.4 21.11.8 3.83 2.32 7.48 4.36 10.78l1.69 2.76c.62.98 1.69 1.6 2.85 1.6h-12.47l-2.49-9.8c-1.95-8.18-.44-16.82 4.1-23.77z" fill="#61656d"/><path d="m385.49 591.51-.29.35 26.39 21.9.29-.35z" fill="#3f4249"/><path d="m408.42 630.789 23.34-22.08-.27-.27-23.34 22z" fill="#3f4249"/><path d="m393.99 579.579-3.65-16.03c-1.34-5.7-8.1-8.1-12.74-4.45-4.54 3.65-3.74 10.87 1.51 13.36z" fill="#4d61fc"/><path d="m393.99 579.579-3.65-16.03c-1.34-5.7-8.1-8.1-12.74-4.45-4.54 3.65-3.74 10.87 1.51 13.36z" fill="#fff" opacity=".3"/><path d="m374.67 565.419c0 2.85 1.6 5.7 4.54 7.04l14.87 7.13-16.39-20.48c-2.13 1.59-3.11 4-3.02 6.31z" fill="#4d61fc"/><path d="m402.45 572.46 10.51-21.73c3.74-7.75-1.87-16.74-10.51-16.74-8.55 0-14.25 9-10.51 16.74z" fill="#4d61fc"/><path d="m402.45 572.46 10.51-21.73c3.74-7.75-1.87-16.74-10.51-16.74-8.55 0-14.25 9-10.51 16.74z" fill="#fff" opacity=".3"/><path d="m401.92 534.07.53 38.39-10.51-21.73c-3.65-7.57 1.7-16.39 9.98-16.66z" fill="#fff" opacity=".3"/><path d="m414.12 601.4 15.23-18.17c5.43-6.5 2.23-16.48-5.97-18.53-8.19-2.05-15.76 5.17-14.07 13.45z" fill="#4d61fc"/><path d="m409.31 578.159c-1.69-8.28 5.88-15.5 14.07-13.45l-9.35 36.6z" fill="#fff" opacity=".3"/><path d="m416.26 623.051 6.95-17.37c2.49-6.23 10.6-7.66 15.05-2.76 4.54 4.9 2.32 12.83-4.1 14.78z" fill="#4d61fc"/><path d="m416.26 623.051 6.95-17.37c2.49-6.23 10.6-7.66 15.05-2.76 4.54 4.9 2.32 12.83-4.1 14.78z" fill="#fff" opacity=".3"/><path d="m437.99 602.56-21.73 20.479 6.95-17.37c2.4-6.05 10.24-7.559 14.78-3.109z" fill="#fff" opacity=".3"/><path d="m404.68 607.82-7.57-18.35c-2.67-6.5-11.31-8.02-16.03-2.76-4.72 5.25-2.32 13.63 4.54 15.59z" fill="#4d61fc"/><path d="m404.68 607.82-7.57-18.35c-2.67-6.5-11.31-8.02-16.03-2.76-4.72 5.25-2.32 13.63 4.54 15.59z" fill="#fff" opacity=".3"/><path d="m403.79 630.351.27-.36-36.16-19.77-.18.36z" fill="#3f4249"/><path d="m398 626.88-13.09-17.9c-4.63-6.41-14.43-5.7-18.08 1.25-3.74 6.95 1.16 15.41 9 15.76z" fill="#4d61fc"/><path d="m398 626.88-13.09-17.9c-4.63-6.41-14.43-5.7-18.08 1.25-3.74 6.95 1.16 15.41 9 15.76z" fill="#fff" opacity=".3"/><path d="m366.47 619.661c1.6 3.47 4.99 6.15 9.35 6.32l22.18.89-31.17-16.65c-1.69 3.21-1.6 6.59-.36 9.44z" fill="#4d61fc"/><path d="m397.11 589.47 7.57 18.35-23.6-21.11c4.72-5.17 13.27-3.74 16.03 2.76z" fill="#fff" opacity=".3"/><path d="m1173 349.641h-8.1v23.67h8.1z" fill="#fff"/><path d="m1040.12 349.641h-8.1v23.67h8.1z" fill="#fff"/><path d="m1195.39 256.141h-100.32v83.24h100.32z" fill="#4d61fc"/><path d="m1195.39 256.141h-100.32v83.24h100.32z" fill="#fff" opacity=".8"/><path d="m1186.1 265.67h-81.91v64.01h81.91z" fill="#fff"/><path d="m1197.46 256.141h-2.16v83.24h2.16z" fill="#b1b5ba"/><path d="m1113.82 319.17 24.83-39.57 37.98 39.57z" fill="#000" opacity=".2"/><path d="m1366.15 1012.95h-1132.42c-.35 0-.59-.24-.59-.59s.24-.59.59-.59h1132.54c.35 0 .59.24.59.59s-.35.59-.71.59z" fill="#b2b6bb"/><path d="m770.94 310.501c1.36 0 2.47-1.11 2.47-2.47 0-1.37-1.11-2.47-2.47-2.47s-2.47 1.1-2.47 2.47c0 1.36 1.11 2.47 2.47 2.47z" fill="#21252b"/><path d="m772.16 307.951c.27 0 .49-.22.49-.49s-.22-.49-.49-.49-.49.22-.49.49.22.49.49.49z" fill="#fff"/><path d="m790.15 314.321c1.36 0 2.47-1.11 2.47-2.47s-1.11-2.47-2.47-2.47-2.47 1.11-2.47 2.47 1.11 2.47 2.47 2.47z" fill="#21252b"/><path d="m791.37 311.769c.27 0 .49-.22.49-.49s-.22-.49-.49-.49-.49.22-.49.49.22.49.49.49z" fill="#fff"/><path d="m777.88 319.44-3.05-.84c-.36-.12-.54-.49-.51-.88.12-.36.49-.54.88-.51l3.05.84c.75.16 1.6-.26 1.76-1.01s-.26-1.6-1.01-1.76c-.36-.12-.54-.49-.51-.88s.49-.54.88-.51c1.48.41 2.37 1.93 2.05 3.43-.55 1.63-2.07 2.52-3.54 2.12z" fill="#000" opacity=".0225"/></svg>